<?xml version="1.0" encoding="utf-8"?>
<!-- Generator: Adobe Illustrator 16.0.0, SVG Export Plug-In . SVG Version: 6.00 Build 0)  -->
<!DOCTYPE svg PUBLIC "-//W3C//DTD SVG 1.1//EN" "http://www.w3.org/Graphics/SVG/1.1/DTD/svg11.dtd">
<svg version="1.1" id="Ebene_1" xmlns="http://www.w3.org/2000/svg" xmlns:xlink="http://www.w3.org/1999/xlink" x="0px" y="0px"
	 width="293px" height="41px" viewBox="0 0 293 41" enable-background="new 0 0 293 41" xml:space="preserve">
<g>
	<g>
		<path fill="#FFFFFF" d="M61.713,6.239h4.756v0.956h-3.603v2.934h3.327v0.943h-3.327v3.995h-1.153V6.239z"/>
		<g>
			<path fill="#FFFFFF" d="M72.278,13.546c0,0.551,0.027,1.087,0.092,1.52h-1.035l-0.104-0.799h-0.04
				c-0.341,0.499-1.035,0.943-1.938,0.943c-1.285,0-1.939-0.903-1.939-1.82c0-1.533,1.362-2.372,3.812-2.358v-0.131
				c0-0.524-0.144-1.48-1.439-1.467c-0.604,0-1.22,0.169-1.665,0.472L67.76,9.134c0.522-0.328,1.296-0.55,2.094-0.55
				c1.953,0,2.424,1.323,2.424,2.593V13.546z M71.153,11.831c-1.259-0.026-2.687,0.196-2.687,1.428c0,0.76,0.498,1.1,1.074,1.1
				c0.84,0,1.376-0.524,1.56-1.061c0.04-0.118,0.053-0.249,0.053-0.367V11.831z"/>
			<path fill="#FFFFFF" d="M78.984,14.83c-0.301,0.144-0.969,0.367-1.821,0.367c-1.912,0-3.157-1.297-3.157-3.235
				c0-1.952,1.336-3.378,3.406-3.378c0.681,0,1.283,0.17,1.598,0.34l-0.262,0.877C78.474,9.657,78.041,9.5,77.413,9.5
				c-1.455,0-2.24,1.086-2.24,2.396c0,1.467,0.942,2.371,2.202,2.371c0.654,0,1.085-0.158,1.413-0.301L78.984,14.83z"/>
			<path fill="#FFFFFF" d="M80.674,5.767h1.152v3.955h0.026c0.185-0.328,0.473-0.629,0.826-0.812c0.34-0.21,0.746-0.327,1.178-0.327
				c0.851,0,2.214,0.523,2.214,2.711v3.771h-1.153v-3.655c0-1.02-0.379-1.872-1.467-1.872c-0.747,0-1.323,0.523-1.545,1.153
				c-0.065,0.157-0.08,0.326-0.08,0.55v3.824h-1.152V5.767z"/>
			<path fill="#FFFFFF" d="M88.283,5.767h1.153v3.955h0.026c0.184-0.328,0.472-0.629,0.824-0.812
				c0.341-0.21,0.749-0.327,1.179-0.327c0.852,0,2.215,0.523,2.215,2.711v3.771h-1.154v-3.655c0-1.02-0.378-1.872-1.466-1.872
				c-0.748,0-1.323,0.523-1.546,1.153c-0.065,0.157-0.078,0.326-0.078,0.55v3.824h-1.153V5.767z"/>
			<path fill="#FFFFFF" d="M98.473,15.21c-1.703,0-3.039-1.258-3.039-3.262c0-2.122,1.402-3.365,3.144-3.365
				c1.821,0,3.052,1.323,3.052,3.247c0,2.358-1.637,3.38-3.143,3.38H98.473z M98.525,14.346c1.1,0,1.926-1.035,1.926-2.476
				c0-1.075-0.538-2.423-1.899-2.423c-1.35,0-1.938,1.257-1.938,2.462c0,1.388,0.786,2.436,1.899,2.436H98.525z"/>
			<path fill="#FFFFFF" d="M107.942,14.83c-0.3,0.144-0.969,0.367-1.821,0.367c-1.912,0-3.157-1.297-3.157-3.235
				c0-1.952,1.338-3.378,3.407-3.378c0.681,0,1.283,0.17,1.597,0.34l-0.262,0.877c-0.274-0.144-0.706-0.301-1.335-0.301
				c-1.455,0-2.24,1.086-2.24,2.396c0,1.467,0.942,2.371,2.201,2.371c0.654,0,1.087-0.158,1.414-0.301L107.942,14.83z"/>
			<path fill="#FFFFFF" d="M109.632,5.767h1.152v3.955h0.025c0.185-0.328,0.473-0.629,0.826-0.812
				c0.341-0.21,0.747-0.327,1.179-0.327c0.851,0,2.214,0.523,2.214,2.711v3.771h-1.153v-3.655c0-1.02-0.379-1.872-1.467-1.872
				c-0.747,0-1.323,0.523-1.545,1.153c-0.065,0.157-0.079,0.326-0.079,0.55v3.824h-1.152V5.767z"/>
			<path fill="#FFFFFF" d="M117.084,13.888c0.354,0.21,0.956,0.444,1.532,0.444c0.826,0,1.218-0.405,1.218-0.941
				c0-0.551-0.328-0.839-1.166-1.153c-1.153-0.419-1.689-1.048-1.689-1.795c0-1.022,0.838-1.859,2.187-1.859
				c0.641,0,1.205,0.17,1.546,0.393l-0.275,0.825c-0.25-0.144-0.708-0.367-1.296-0.367c-0.683,0-1.048,0.393-1.048,0.864
				c0,0.524,0.366,0.76,1.192,1.087c1.086,0.406,1.663,0.957,1.663,1.899c0,1.126-0.877,1.913-2.358,1.913
				c-0.694,0-1.336-0.184-1.782-0.445L117.084,13.888z"/>
			<path fill="#FFFFFF" d="M127.288,14.83c-0.302,0.144-0.97,0.367-1.821,0.367c-1.912,0-3.157-1.297-3.157-3.235
				c0-1.952,1.335-3.378,3.406-3.378c0.681,0,1.282,0.17,1.597,0.34l-0.262,0.877c-0.275-0.144-0.708-0.301-1.335-0.301
				c-1.456,0-2.24,1.086-2.24,2.396c0,1.467,0.942,2.371,2.201,2.371c0.655,0,1.086-0.158,1.414-0.301L127.288,14.83z"/>
			<path fill="#FFFFFF" d="M128.977,5.767h1.152v3.955h0.026c0.184-0.328,0.472-0.629,0.825-0.812
				c0.341-0.21,0.747-0.327,1.179-0.327c0.852,0,2.214,0.523,2.214,2.711v3.771h-1.153v-3.655c0-1.02-0.379-1.872-1.467-1.872
				c-0.747,0-1.323,0.523-1.545,1.153c-0.065,0.157-0.08,0.326-0.08,0.55v3.824h-1.152V5.767z"/>
			<path fill="#FFFFFF" d="M141.891,13.324c0,0.669,0.014,1.244,0.052,1.742h-1.021l-0.065-1.034h-0.026
				c-0.29,0.51-0.97,1.179-2.097,1.179c-0.995,0-2.187-0.563-2.187-2.777V8.728h1.153v3.497c0,1.205,0.379,2.03,1.415,2.03
				c0.773,0,1.309-0.538,1.52-1.062c0.064-0.157,0.104-0.367,0.104-0.589V8.728h1.153V13.324z"/>
			<path fill="#FFFFFF" d="M144.145,5.767h1.152v9.299h-1.152V5.767z"/>
			<path fill="#FFFFFF" d="M148.229,12.106c0.028,1.545,1.009,2.188,2.163,2.188c0.825,0,1.334-0.145,1.753-0.328l0.211,0.825
				c-0.406,0.183-1.112,0.406-2.121,0.406c-1.94,0-3.119-1.297-3.119-3.196c0-1.913,1.14-3.418,2.987-3.418
				c2.07,0,2.607,1.82,2.607,2.985c0,0.236-0.014,0.406-0.04,0.537H148.229z M151.596,11.281c0.014-0.734-0.3-1.874-1.584-1.874
				c-1.178,0-1.677,1.075-1.768,1.874H151.596z"/>
		</g>
		<g>
			<path fill="#FFFFFF" d="M157.831,6.239h1.141v4.256h0.038c0.235-0.34,0.471-0.655,0.694-0.943l2.698-3.313h1.414l-3.194,3.746
				l3.443,5.081h-1.349l-2.896-4.335l-0.849,0.969v3.366h-1.141V6.239z"/>
			<path fill="#FFFFFF" d="M167.812,15.21c-1.704,0-3.038-1.258-3.038-3.262c0-2.122,1.401-3.365,3.141-3.365
				c1.824,0,3.054,1.323,3.054,3.247c0,2.358-1.639,3.38-3.146,3.38H167.812z M167.864,14.346c1.1,0,1.926-1.035,1.926-2.476
				c0-1.075-0.538-2.423-1.899-2.423c-1.35,0-1.938,1.257-1.938,2.462c0,1.388,0.786,2.436,1.9,2.436H167.864z M166.646,7.601
				c-0.367,0-0.64-0.313-0.64-0.668c0-0.367,0.286-0.667,0.666-0.667c0.354,0,0.628,0.289,0.628,0.667
				c0,0.355-0.259,0.668-0.64,0.668H166.646z M169.083,7.601c-0.379,0-0.644-0.313-0.644-0.668c0-0.367,0.291-0.667,0.656-0.667
				c0.368,0,0.644,0.289,0.644,0.667c0,0.355-0.262,0.668-0.644,0.668H169.083z"/>
			<path fill="#FFFFFF" d="M172.763,5.767h1.151v9.299h-1.151V5.767z"/>
		</g>
		<path fill="#FFFFFF" d="M176.176,10.443c0-0.668-0.013-1.192-0.053-1.715h1.023l0.064,1.034h0.027
			c0.312-0.589,1.048-1.178,2.096-1.178c0.876,0,2.237,0.523,2.237,2.698v3.785h-1.151v-3.655c0-1.02-0.381-1.885-1.465-1.885
			c-0.749,0-1.337,0.536-1.547,1.178c-0.054,0.145-0.078,0.354-0.078,0.538v3.824h-1.154V10.443z"/>
		<path fill="#FFFFFF" d="M67.884,28.967c-0.406,0.209-1.258,0.419-2.332,0.419c-2.489,0-4.348-1.57-4.348-4.465
			c0-2.765,1.873-4.625,4.61-4.625c1.087,0,1.794,0.236,2.095,0.379l-0.288,0.943c-0.419-0.209-1.035-0.367-1.769-0.367
			c-2.069,0-3.445,1.323-3.445,3.628c0,2.161,1.245,3.537,3.38,3.537c0.706,0,1.414-0.144,1.873-0.367L67.884,28.967z"/>
		<path fill="#FFFFFF" d="M72.056,29.398c-1.704,0-3.04-1.257-3.04-3.26c0-2.123,1.401-3.368,3.144-3.368
			c1.82,0,3.051,1.325,3.051,3.249c0,2.357-1.638,3.379-3.144,3.379H72.056z M72.107,28.535c1.101,0,1.925-1.034,1.925-2.476
			c0-1.074-0.537-2.423-1.898-2.423c-1.35,0-1.938,1.257-1.938,2.462c0,1.387,0.786,2.437,1.899,2.437H72.107z"/>
		<path fill="#FFFFFF" d="M76.993,19.957h1.152v9.299h-1.152V19.957z"/>
		<path fill="#FFFFFF" d="M82.991,29.398c-1.702,0-3.038-1.257-3.038-3.26c0-2.123,1.401-3.368,3.144-3.368
			c1.819,0,3.051,1.325,3.051,3.249c0,2.357-1.636,3.379-3.143,3.379H82.991z M83.044,28.535c1.099,0,1.925-1.034,1.925-2.476
			c0-1.074-0.538-2.423-1.9-2.423c-1.349,0-1.937,1.257-1.937,2.462c0,1.387,0.785,2.437,1.898,2.437H83.044z"/>
		<path fill="#FFFFFF" d="M93.352,28.325c0,1.467-0.301,2.345-0.904,2.909c-0.628,0.562-1.519,0.758-2.318,0.758
			c-0.759,0-1.599-0.183-2.109-0.523l0.289-0.893c0.419,0.277,1.074,0.513,1.86,0.513c1.178,0,2.042-0.615,2.042-2.226v-0.695
			h-0.025c-0.341,0.589-1.035,1.061-2.017,1.061c-1.573,0-2.698-1.336-2.698-3.104c0-2.147,1.4-3.354,2.867-3.354
			c1.102,0,1.69,0.564,1.979,1.102h0.025l0.04-0.957h1.021c-0.037,0.446-0.051,0.971-0.051,1.729V28.325z M92.199,25.404
			c0-0.183-0.013-0.354-0.066-0.511c-0.209-0.682-0.759-1.231-1.611-1.231c-1.1,0-1.886,0.931-1.886,2.41
			c0,1.23,0.643,2.279,1.874,2.279c0.72,0,1.361-0.446,1.597-1.192c0.067-0.183,0.093-0.405,0.093-0.615V25.404z"/>
		<path fill="#FFFFFF" d="M95.578,24.631c0-0.667-0.014-1.191-0.053-1.715h1.022l0.065,1.035h0.025
			c0.314-0.589,1.048-1.179,2.096-1.179c0.878,0,2.24,0.525,2.24,2.699v3.786h-1.152v-3.654c0-1.022-0.38-1.886-1.468-1.886
			c-0.747,0-1.337,0.536-1.546,1.178c-0.052,0.144-0.078,0.353-0.078,0.536v3.826h-1.153V24.631z"/>
		<path fill="#FFFFFF" d="M103.829,26.294c0.025,1.548,1.009,2.19,2.161,2.19c0.826,0,1.336-0.146,1.755-0.33l0.209,0.825
			c-0.405,0.183-1.113,0.406-2.122,0.406c-1.938,0-3.118-1.296-3.118-3.195c0-1.912,1.14-3.419,2.988-3.419
			c2.069,0,2.606,1.822,2.606,2.988c0,0.236-0.014,0.406-0.04,0.535H103.829z M107.195,25.47c0.014-0.731-0.301-1.874-1.584-1.874
			c-1.178,0-1.678,1.076-1.769,1.874H107.195z"/>
		<path fill="#FFFFFF" d="M114.595,20.427v5.238c0,1.968,0.878,2.804,2.057,2.804c1.296,0,2.148-0.863,2.148-2.804v-5.238h1.152
			v5.161c0,2.711-1.428,3.811-3.341,3.811c-1.807,0-3.169-1.021-3.169-3.771v-5.2H114.595z"/>
		<path fill="#FFFFFF" d="M122.23,24.631c0-0.667-0.011-1.191-0.052-1.715h1.021l0.065,1.035h0.028
			c0.314-0.589,1.046-1.179,2.094-1.179c0.879,0,2.24,0.525,2.24,2.699v3.786h-1.151v-3.654c0-1.022-0.381-1.886-1.467-1.886
			c-0.747,0-1.336,0.536-1.546,1.178c-0.051,0.144-0.079,0.353-0.079,0.536v3.826h-1.152V24.631z"/>
		<path fill="#FFFFFF" d="M130.39,21.842c-0.418,0-0.694-0.327-0.694-0.707c0-0.406,0.289-0.722,0.72-0.722
			c0.419,0,0.708,0.315,0.708,0.722c0,0.379-0.276,0.707-0.72,0.707H130.39z M129.84,29.256v-6.34h1.152v6.34H129.84z"/>
		<path fill="#FFFFFF" d="M133.69,22.916l1.246,3.55c0.208,0.589,0.379,1.112,0.511,1.638h0.04c0.143-0.525,0.326-1.049,0.536-1.638
			l1.231-3.55h1.204l-2.487,6.34h-1.101l-2.411-6.34H133.69z"/>
		<path fill="#FFFFFF" d="M140.541,26.294c0.025,1.548,1.009,2.19,2.16,2.19c0.826,0,1.336-0.146,1.755-0.33l0.209,0.825
			c-0.406,0.183-1.113,0.406-2.122,0.406c-1.939,0-3.118-1.296-3.118-3.195c0-1.912,1.139-3.419,2.986-3.419
			c2.071,0,2.608,1.822,2.608,2.988c0,0.236-0.014,0.406-0.04,0.535H140.541z M143.907,25.47c0.012-0.731-0.302-1.874-1.584-1.874
			c-1.181,0-1.678,1.076-1.769,1.874H143.907z"/>
		<path fill="#FFFFFF" d="M146.789,24.894c0-0.747-0.014-1.389-0.053-1.978h1.01l0.051,1.245h0.04
			c0.288-0.852,0.995-1.389,1.767-1.389c0.119,0,0.21,0.014,0.316,0.026v1.089c-0.119-0.014-0.236-0.027-0.394-0.027
			c-0.81,0-1.388,0.615-1.545,1.467c-0.027,0.17-0.039,0.353-0.039,0.536v3.394h-1.152V24.894z"/>
		<path fill="#FFFFFF" d="M151.253,28.076c0.354,0.21,0.956,0.444,1.534,0.444c0.825,0,1.218-0.404,1.218-0.942
			c0-0.55-0.328-0.837-1.166-1.152c-1.153-0.419-1.689-1.049-1.689-1.795c0-1.021,0.838-1.86,2.186-1.86
			c0.642,0,1.206,0.172,1.547,0.392l-0.276,0.826c-0.248-0.144-0.707-0.366-1.298-0.366c-0.679,0-1.048,0.393-1.048,0.865
			c0,0.523,0.369,0.758,1.193,1.087c1.088,0.406,1.664,0.956,1.664,1.899c0,1.126-0.877,1.911-2.357,1.911
			c-0.695,0-1.336-0.184-1.782-0.445L151.253,28.076z"/>
		<path fill="#FFFFFF" d="M157.488,21.842c-0.419,0-0.695-0.327-0.695-0.707c0-0.406,0.29-0.722,0.722-0.722
			c0.419,0,0.707,0.315,0.707,0.722c0,0.379-0.274,0.707-0.72,0.707H157.488z M156.939,29.256v-6.34h1.151v6.34H156.939z"/>
		<path fill="#FFFFFF" d="M161.732,21.397v1.519h1.65v0.877h-1.65V27.2c0,0.784,0.223,1.23,0.865,1.23
			c0.314,0,0.497-0.026,0.667-0.079l0.053,0.877c-0.224,0.08-0.576,0.157-1.021,0.157c-0.539,0-0.968-0.184-1.245-0.484
			c-0.314-0.354-0.445-0.917-0.445-1.664v-3.444h-0.982v-0.877h0.982V21.75L161.732,21.397z"/>
		<path fill="#FFFFFF" d="M165.439,22.916l1.375,3.747c0.156,0.418,0.314,0.916,0.419,1.296h0.026
			c0.116-0.38,0.25-0.863,0.406-1.322l1.258-3.72h1.218l-1.729,4.52c-0.827,2.173-1.389,3.274-2.174,3.968
			c-0.578,0.484-1.128,0.681-1.415,0.734l-0.289-0.957c0.289-0.092,0.669-0.274,1.008-0.564c0.316-0.247,0.696-0.692,0.97-1.282
			c0.051-0.118,0.092-0.21,0.092-0.274c0-0.066-0.027-0.158-0.092-0.303l-2.332-5.841H165.439z"/>
		<path fill="#FFFFFF" d="M177.427,29.398c-1.7,0-3.037-1.257-3.037-3.26c0-2.123,1.401-3.368,3.143-3.368
			c1.822,0,3.053,1.325,3.053,3.249c0,2.357-1.638,3.379-3.145,3.379H177.427z M177.48,28.535c1.1,0,1.926-1.034,1.926-2.476
			c0-1.074-0.537-2.423-1.899-2.423c-1.35,0-1.938,1.257-1.938,2.462c0,1.387,0.786,2.437,1.898,2.437H177.48z"/>
		<path fill="#FFFFFF" d="M182.485,29.256v-5.463h-0.878v-0.877h0.878v-0.301c0-0.891,0.209-1.703,0.747-2.213
			c0.431-0.42,1.006-0.589,1.532-0.589c0.42,0,0.758,0.091,0.982,0.184l-0.144,0.89c-0.183-0.079-0.407-0.144-0.749-0.144
			c-0.967,0-1.23,0.865-1.23,1.833v0.34h1.534v0.877h-1.52v5.463H182.485z"/>
		<path fill="#FFFFFF" d="M191.388,26.478l-0.917,2.778h-1.179l2.998-8.829h1.376l3.012,8.829h-1.218l-0.945-2.778H191.388z
			 M194.281,25.588l-0.877-2.541c-0.183-0.576-0.316-1.101-0.446-1.611h-0.04c-0.117,0.51-0.264,1.061-0.432,1.598l-0.866,2.554
			H194.281z"/>
		<path fill="#FFFFFF" d="M198.277,24.985c0-0.812-0.015-1.465-0.053-2.07h1.035l0.064,1.086h0.026
			c0.459-0.785,1.218-1.231,2.24-1.231c1.546,0,2.698,1.298,2.698,3.224c0,2.279-1.4,3.403-2.881,3.403
			c-0.852,0-1.57-0.365-1.952-0.994h-0.026v3.442h-1.151V24.985z M199.428,26.676c0,0.156,0.014,0.328,0.051,0.471
			c0.198,0.798,0.905,1.349,1.718,1.349c1.217,0,1.926-0.994,1.926-2.45c0-1.269-0.656-2.355-1.874-2.355
			c-0.785,0-1.533,0.549-1.754,1.427c-0.025,0.144-0.066,0.313-0.066,0.459V26.676z"/>
		<path fill="#FFFFFF" d="M206.068,24.985c0-0.812-0.013-1.465-0.051-2.07h1.033l0.066,1.086h0.025
			c0.458-0.785,1.218-1.231,2.24-1.231c1.545,0,2.696,1.298,2.696,3.224c0,2.279-1.4,3.403-2.879,3.403
			c-0.854,0-1.572-0.365-1.952-0.994h-0.025v3.442h-1.154V24.985z M207.223,26.676c0,0.156,0.011,0.328,0.051,0.471
			c0.198,0.798,0.903,1.349,1.717,1.349c1.217,0,1.925-0.994,1.925-2.45c0-1.269-0.654-2.355-1.873-2.355
			c-0.785,0-1.534,0.549-1.756,1.427c-0.024,0.144-0.063,0.313-0.063,0.459V26.676z"/>
		<path fill="#FFFFFF" d="M213.863,19.957h1.151v9.299h-1.151V19.957z"/>
		<path fill="#FFFFFF" d="M217.842,21.842c-0.419,0-0.691-0.327-0.691-0.707c0-0.406,0.285-0.722,0.719-0.722
			c0.419,0,0.708,0.315,0.708,0.722c0,0.379-0.275,0.707-0.722,0.707H217.842z M217.293,29.256v-6.34h1.153v6.34H217.293z"/>
		<path fill="#FFFFFF" d="M221.353,26.294c0.028,1.548,1.01,2.19,2.163,2.19c0.824,0,1.334-0.146,1.753-0.33l0.211,0.825
			c-0.408,0.183-1.112,0.406-2.123,0.406c-1.938,0-3.116-1.296-3.116-3.195c0-1.912,1.141-3.419,2.987-3.419
			c2.069,0,2.606,1.822,2.606,2.988c0,0.236-0.014,0.406-0.04,0.535H221.353z M224.719,25.47c0.014-0.731-0.302-1.874-1.583-1.874
			c-1.179,0-1.678,1.076-1.771,1.874H224.719z"/>
		<path fill="#FFFFFF" d="M233.075,19.957v7.662c0,0.562,0.014,1.204,0.052,1.637h-1.033l-0.053-1.102h-0.025
			c-0.354,0.709-1.114,1.244-2.149,1.244c-1.534,0-2.724-1.295-2.724-3.221c-0.013-2.122,1.31-3.407,2.843-3.407
			c0.982,0,1.636,0.459,1.91,0.958h0.026v-3.772H233.075z M231.922,25.496c0-0.156-0.013-0.341-0.051-0.5
			c-0.171-0.718-0.799-1.32-1.664-1.32c-1.192,0-1.899,1.049-1.899,2.436c0,1.297,0.641,2.357,1.871,2.357
			c0.775,0,1.482-0.524,1.692-1.389c0.038-0.144,0.051-0.3,0.051-0.482V25.496z"/>
		<path fill="#FFFFFF" d="M238.648,27.868c0.511,0.312,1.244,0.562,2.031,0.562c1.164,0,1.846-0.603,1.846-1.494
			c0-0.825-0.472-1.31-1.662-1.755c-1.442-0.497-2.333-1.257-2.333-2.488c0-1.375,1.141-2.397,2.854-2.397
			c0.892,0,1.561,0.21,1.94,0.419l-0.314,0.943c-0.275-0.17-0.865-0.419-1.664-0.419c-1.207,0-1.665,0.721-1.665,1.324
			c0,0.811,0.539,1.218,1.756,1.689c1.495,0.589,2.239,1.297,2.239,2.593c0,1.35-0.994,2.541-3.077,2.541
			c-0.852,0-1.78-0.262-2.253-0.576L238.648,27.868z"/>
		<path fill="#FFFFFF" d="M250.141,29.02c-0.301,0.143-0.967,0.366-1.819,0.366c-1.913,0-3.157-1.296-3.157-3.234
			c0-1.953,1.336-3.38,3.404-3.38c0.682,0,1.284,0.172,1.6,0.341l-0.262,0.877c-0.275-0.144-0.708-0.299-1.338-0.299
			c-1.452,0-2.237,1.087-2.237,2.396c0,1.467,0.943,2.372,2.198,2.372c0.654,0,1.087-0.158,1.416-0.303L250.141,29.02z"/>
		<path fill="#FFFFFF" d="M252.381,21.842c-0.42,0-0.694-0.327-0.694-0.707c0-0.406,0.288-0.722,0.721-0.722
			c0.42,0,0.708,0.315,0.708,0.722c0,0.379-0.275,0.707-0.721,0.707H252.381z M251.832,29.256v-6.34h1.151v6.34H251.832z"/>
		<path fill="#FFFFFF" d="M255.892,26.294c0.026,1.548,1.008,2.19,2.161,2.19c0.824,0,1.335-0.146,1.754-0.33l0.21,0.825
			c-0.405,0.183-1.113,0.406-2.122,0.406c-1.939,0-3.117-1.296-3.117-3.195c0-1.912,1.141-3.419,2.987-3.419
			c2.069,0,2.604,1.822,2.604,2.988c0,0.236-0.012,0.406-0.037,0.535H255.892z M259.258,25.47c0.012-0.731-0.303-1.874-1.585-1.874
			c-1.18,0-1.678,1.076-1.769,1.874H259.258z"/>
		<path fill="#FFFFFF" d="M262.14,24.631c0-0.667-0.014-1.191-0.054-1.715h1.021l0.067,1.035h0.025
			c0.313-0.589,1.049-1.179,2.096-1.179c0.876,0,2.238,0.525,2.238,2.699v3.786h-1.152v-3.654c0-1.022-0.38-1.886-1.468-1.886
			c-0.746,0-1.334,0.536-1.546,1.178c-0.051,0.144-0.077,0.353-0.077,0.536v3.826h-1.151V24.631z"/>
		<path fill="#FFFFFF" d="M274.267,29.02c-0.301,0.143-0.969,0.366-1.821,0.366c-1.911,0-3.155-1.296-3.155-3.234
			c0-1.953,1.337-3.38,3.405-3.38c0.68,0,1.283,0.172,1.598,0.341l-0.263,0.877c-0.272-0.144-0.705-0.299-1.335-0.299
			c-1.452,0-2.241,1.087-2.241,2.396c0,1.467,0.944,2.372,2.202,2.372c0.654,0,1.088-0.158,1.414-0.303L274.267,29.02z"/>
		<path fill="#FFFFFF" d="M276.61,26.294c0.025,1.548,1.01,2.19,2.161,2.19c0.827,0,1.337-0.146,1.757-0.33l0.21,0.825
			c-0.406,0.183-1.114,0.406-2.123,0.406c-1.938,0-3.117-1.296-3.117-3.195c0-1.912,1.138-3.419,2.987-3.419
			c2.069,0,2.604,1.822,2.604,2.988c0,0.236-0.013,0.406-0.039,0.535H276.61z M279.978,25.47c0.012-0.731-0.301-1.874-1.585-1.874
			c-1.178,0-1.677,1.076-1.768,1.874H279.978z"/>
		<path fill="#FFFFFF" d="M282.701,28.076c0.353,0.21,0.956,0.444,1.534,0.444c0.824,0,1.218-0.404,1.218-0.942
			c0-0.55-0.329-0.837-1.166-1.152c-1.154-0.419-1.691-1.049-1.691-1.795c0-1.021,0.841-1.86,2.188-1.86
			c0.642,0,1.204,0.172,1.545,0.392l-0.275,0.826c-0.248-0.144-0.708-0.366-1.297-0.366c-0.681,0-1.049,0.393-1.049,0.865
			c0,0.523,0.368,0.758,1.195,1.087c1.085,0.406,1.66,0.956,1.66,1.899c0,1.126-0.876,1.911-2.355,1.911
			c-0.695,0-1.337-0.184-1.781-0.445L282.701,28.076z"/>
	</g>
	<g>
		<path fill="#FFFFFF" d="M7.688,6.072c0.973,0,1.769,0.791,1.769,1.764c0,0.972-0.796,1.768-1.769,1.768
			c-0.977,0-1.777-0.785-1.777-1.768C5.911,6.854,6.711,6.072,7.688,6.072z"/>
		<path fill="#FFFFFF" d="M20.775,6.072c0.973,0,1.769,0.791,1.769,1.764c0,0.972-0.796,1.768-1.769,1.768
			c-0.977,0-1.777-0.785-1.777-1.768C18.998,6.854,19.798,6.072,20.775,6.072z"/>
		<path fill="#FFFFFF" d="M27.319,6.072c0.973,0,1.768,0.791,1.768,1.764c0,0.972-0.795,1.768-1.768,1.768
			c-0.978,0-1.777-0.785-1.777-1.768C25.542,6.854,26.342,6.072,27.319,6.072z"/>
		<path fill="#FFFFFF" d="M33.863,6.072c0.972,0,1.768,0.791,1.768,1.764c0,0.972-0.796,1.768-1.768,1.768
			c-0.978,0-1.778-0.785-1.778-1.768C32.085,6.854,32.886,6.072,33.863,6.072z"/>
		<path fill="#FFFFFF" d="M40.407,6.072c0.973,0,1.769,0.791,1.769,1.764c0,0.972-0.796,1.768-1.769,1.768
			c-0.978,0-1.778-0.785-1.778-1.768C38.628,6.854,39.429,6.072,40.407,6.072z"/>
		<path fill="#FFFFFF" d="M46.95,6.072c0.973,0,1.769,0.791,1.769,1.764c0,0.972-0.796,1.768-1.769,1.768
			c-0.977,0-1.778-0.785-1.778-1.768C45.172,6.854,45.973,6.072,46.95,6.072z"/>
		<path fill="#FFFFFF" d="M20.703,12.695c0.972,0,1.767,0.79,1.767,1.763c0,0.973-0.794,1.769-1.767,1.769
			c-0.977,0-1.779-0.786-1.779-1.769C18.924,13.476,19.726,12.695,20.703,12.695z"/>
		<path fill="#FFFFFF" d="M27.244,12.695c0.972,0,1.769,0.79,1.769,1.763c0,0.973-0.796,1.769-1.769,1.769
			c-0.976,0-1.777-0.786-1.777-1.769C25.466,13.476,26.268,12.695,27.244,12.695z"/>
		<path fill="#FFFFFF" d="M33.786,12.695c0.973,0,1.769,0.79,1.769,1.763c0,0.973-0.796,1.769-1.769,1.769
			c-0.978,0-1.777-0.786-1.777-1.769C32.008,13.476,32.808,12.695,33.786,12.695z"/>
		<path fill="#FFFFFF" d="M40.329,12.695c0.972,0,1.768,0.79,1.768,1.763c0,0.973-0.796,1.769-1.768,1.769
			c-0.977,0-1.777-0.786-1.777-1.769C38.551,13.476,39.352,12.695,40.329,12.695z"/>
		<path fill="#FFFFFF" d="M46.871,12.695c0.973,0,1.768,0.79,1.768,1.763c0,0.973-0.795,1.769-1.768,1.769
			c-0.978,0-1.777-0.786-1.777-1.769C45.093,13.476,45.893,12.695,46.871,12.695z"/>
		<path fill="#FFFFFF" d="M20.775,19.171c0.973,0,1.769,0.79,1.769,1.762c0,0.973-0.796,1.769-1.769,1.769
			c-0.977,0-1.777-0.786-1.777-1.769C18.998,19.952,19.798,19.171,20.775,19.171z"/>
		<path fill="#FFFFFF" d="M27.319,19.171c0.973,0,1.768,0.79,1.768,1.762c0,0.973-0.795,1.769-1.768,1.769
			c-0.978,0-1.777-0.786-1.777-1.769C25.542,19.952,26.342,19.171,27.319,19.171z"/>
		<path fill="#FFFFFF" d="M33.863,19.171c0.972,0,1.768,0.79,1.768,1.762c0,0.973-0.796,1.769-1.768,1.769
			c-0.978,0-1.778-0.786-1.778-1.769C32.085,19.952,32.886,19.171,33.863,19.171z"/>
		<path fill="#FFFFFF" d="M40.407,19.171c0.973,0,1.769,0.79,1.769,1.762c0,0.973-0.796,1.769-1.769,1.769
			c-0.978,0-1.778-0.786-1.778-1.769C38.628,19.952,39.429,19.171,40.407,19.171z"/>
		<path fill="#FFFFFF" d="M46.95,19.171c0.973,0,1.769,0.79,1.769,1.762c0,0.973-0.796,1.769-1.769,1.769
			c-0.977,0-1.778-0.786-1.778-1.769C45.172,19.952,45.973,19.171,46.95,19.171z"/>
		<path fill="#FFFFFF" d="M27.319,25.719c0.973,0,1.768,0.792,1.768,1.764s-0.795,1.767-1.768,1.767
			c-0.978,0-1.777-0.785-1.777-1.767C25.542,26.5,26.342,25.719,27.319,25.719z"/>
		<path fill="#FFFFFF" d="M33.863,25.719c0.972,0,1.768,0.792,1.768,1.764s-0.796,1.767-1.768,1.767
			c-0.978,0-1.778-0.785-1.778-1.767C32.085,26.5,32.886,25.719,33.863,25.719z"/>
		<path fill="#FFFFFF" d="M40.407,25.719c0.973,0,1.769,0.792,1.769,1.764s-0.796,1.767-1.769,1.767
			c-0.978,0-1.778-0.785-1.778-1.767C38.628,26.5,39.429,25.719,40.407,25.719z"/>
		<path fill="#FFFFFF" d="M46.95,25.719c0.973,0,1.769,0.792,1.769,1.764s-0.796,1.767-1.769,1.767
			c-0.977,0-1.778-0.785-1.778-1.767C45.172,26.5,45.973,25.719,46.95,25.719z"/>
		<path fill="#FFFFFF" d="M20.775,32.267c0.973,0,1.769,0.792,1.769,1.764c0,0.974-0.796,1.771-1.769,1.771
			c-0.977,0-1.777-0.787-1.777-1.771C18.998,33.049,19.798,32.267,20.775,32.267z"/>
		<path fill="#FFFFFF" d="M27.319,32.267c0.973,0,1.768,0.792,1.768,1.764c0,0.974-0.795,1.771-1.768,1.771
			c-0.978,0-1.777-0.787-1.777-1.771C25.542,33.049,26.342,32.267,27.319,32.267z"/>
		<path fill="#FFFFFF" d="M33.863,32.267c0.972,0,1.768,0.792,1.768,1.764c0,0.974-0.796,1.771-1.768,1.771
			c-0.978,0-1.778-0.787-1.778-1.771C32.085,33.049,32.886,32.267,33.863,32.267z"/>
		<path fill="#FFFFFF" d="M20.812,25.683c0.972,0,1.769,0.792,1.769,1.763c0,0.974-0.796,1.769-1.769,1.769
			c-0.978,0-1.779-0.785-1.779-1.769C19.034,26.464,19.835,25.683,20.812,25.683z"/>
	</g>
</g>
</svg>
